<svg viewBox="0 0 510 600" focusable="false" xmlns="http://www.w3.org/2000/svg"><g clip-path="url(#:R4qplt6:)"><rect width="510" height="600" fill="white"></rect><path fill-rule="evenodd" clip-rule="evenodd" d="M234.761 351.67C254.845 371.755 254.845 404.318 234.761 424.402L233.628 425.536C245.828 443.337 244.021 467.853 228.208 483.667C226.342 485.532 224.355 487.203 222.272 488.679C235.712 504.395 234.997 528.06 220.127 542.93C216.693 546.364 212.79 549.043 208.624 550.967C223.905 571.122 222.351 599.969 203.964 618.357L156.111 666.209C136.026 686.294 103.463 686.294 83.3786 666.209L-83.6367 499.194C-103.721 479.11 -103.721 446.546 -83.6366 426.462L-35.7839 378.609C-17.3964 360.222 11.4502 358.668 31.6052 373.948C33.5294 369.782 36.2085 365.879 39.6425 362.445C54.5129 347.575 78.1783 346.86 93.8942 360.301C95.37 358.218 97.0408 356.231 98.9067 354.365C114.719 338.553 139.233 336.746 157.034 348.943L158.168 347.81C178.253 327.725 210.816 327.725 230.9 347.81L234.761 351.67Z" fill="url(#paint0_radial_3014_221572)"></path><path d="M89.2635 407.012C89.3 406.741 89.5231 406.237 89.9329 405.499C90.3425 404.761 90.8845 403.937 91.5584 403.029C92.2325 402.121 93.0914 401.375 94.1354 400.791C95.1793 400.207 96.2284 399.97 97.2826 400.077C98.8402 400.287 99.9514 400.868 100.616 401.819C101.281 402.77 101.536 403.821 101.381 404.973C101.298 405.583 100.467 407.4 98.8874 410.428C97.3072 413.456 96.41 415.766 96.1957 417.357C95.9995 418.813 96.0996 419.861 96.4961 420.5C96.8925 421.14 97.5626 421.54 98.5061 421.702C99.4497 421.863 100.386 421.697 101.314 421.201C102.243 420.706 102.947 420.215 103.426 419.727L104.101 418.939C104.187 418.813 105.177 416.327 107.072 411.48C108.635 407.553 109.564 405.265 109.858 404.615C110.153 403.966 110.456 403.507 110.768 403.238C111.412 402.808 112.055 402.636 112.699 402.723C113.274 402.8 113.675 403.026 113.9 403.403C114.126 403.777 114.217 404.117 114.176 404.422L108.14 420.053C108.084 420.218 108.03 420.485 107.98 420.858C107.866 421.704 107.909 422.28 108.11 422.582C108.31 422.885 108.645 423.085 109.115 423.183C109.873 423.181 110.537 422.736 111.105 421.847C111.672 420.96 112.381 419.538 113.231 417.584C113.335 417.322 113.692 417.233 114.301 417.315C114.944 417.401 115.245 417.597 115.204 417.901C115.148 418.066 115.082 418.299 115.007 418.599C114.932 418.898 114.707 419.42 114.331 420.163C113.955 420.905 113.57 421.594 113.173 422.23C112.778 422.866 112.268 423.453 111.643 423.989C111.02 424.525 110.353 424.867 109.644 425.013C109.364 425.044 108.953 425.023 108.411 424.95C106.176 424.649 104.763 423.493 104.172 421.483C104.1 421.508 103.891 421.652 103.545 421.915C103.2 422.179 102.861 422.391 102.528 422.554C102.196 422.716 101.79 422.92 101.308 423.165C100.827 423.411 100.309 423.548 99.7532 423.576C99.1978 423.605 98.6107 423.612 97.9922 423.598C96.5023 423.397 95.2227 422.915 94.1536 422.15C92.5343 420.863 91.8958 418.95 92.2379 416.41C92.4979 414.481 93.4303 412.037 95.0351 409.083C96.6399 406.127 97.4993 404.227 97.6135 403.379C97.618 403.346 97.6226 403.311 97.6271 403.278C97.6682 402.973 97.6955 402.77 97.7092 402.669C97.7229 402.567 97.6712 402.439 97.554 402.286C97.4367 402.132 97.2597 402.039 97.0227 402.007L96.8195 401.979C96.0407 401.874 95.2862 402.101 94.5562 402.657C93.8262 403.213 93.2248 403.839 92.7518 404.535C92.2791 405.229 91.8955 405.901 91.6011 406.551C91.3066 407.201 91.1211 407.555 91.0443 407.613C90.9672 407.673 90.6919 407.669 90.2179 407.606L89.5069 407.51C89.3309 407.28 89.25 407.113 89.2635 407.012Z" fill="black"></path><path d="M78.7854 498.996L100.003 493.6L84.722 477.924L78.7854 498.996ZM191.393 386.589L186.51 391.348L189.157 394.064L194.04 389.305L191.393 386.589ZM180 397.694L170.234 407.213L172.881 409.928L182.647 400.41L180 397.694ZM163.724 413.558L153.958 423.076L156.605 425.792L166.371 416.274L163.724 413.558ZM147.448 429.423L137.683 438.941L140.33 441.657L150.095 432.137L147.448 429.423ZM131.172 445.286L121.407 454.805L124.054 457.52L133.819 448.002L131.172 445.286ZM114.897 461.151L105.131 470.669L107.777 473.385L117.544 463.867L114.897 461.151ZM98.6206 477.015L88.8552 486.533L91.5019 489.249L101.267 479.73L98.6206 477.015Z" fill="black"></path><path d="M186.491 448.236C182.097 445.043 176.147 445.043 171.753 448.236C167.359 451.428 165.52 457.087 167.198 462.252C168.877 467.418 173.691 470.915 179.122 470.915C184.553 470.915 189.367 467.418 191.046 462.252C192.724 457.087 190.885 451.428 186.491 448.236Z" fill="#FF8D23" stroke="black" stroke-width="3.8096"></path><path d="M296.135 447.945C296.135 446.748 296.542 445.767 297.358 445.003C298.173 444.238 299.128 443.844 300.224 443.818C300.657 443.844 301.281 443.945 302.097 444.124C302.912 444.302 303.625 444.455 304.237 444.582C304.848 444.71 305.18 444.799 305.23 444.85C305.689 445.054 305.918 445.41 305.918 445.92C305.918 446.378 305.753 446.811 305.422 447.219C305.09 447.627 304.644 447.831 304.084 447.831C303.549 447.831 302.848 447.461 301.982 446.722C301.116 445.984 300.351 445.601 299.689 445.576C299.027 445.55 298.53 445.729 298.199 446.111C297.867 446.493 297.689 446.862 297.663 447.219C297.663 448.34 298.925 450.442 301.447 453.525C303.154 455.665 304.007 457.843 304.007 460.059C304.007 463.193 303.23 465.893 301.676 468.161C300.122 470.428 298.402 471.575 296.517 471.6H296.249C294.441 471.6 292.976 471.014 291.855 469.842C290.733 468.67 290.135 467.18 290.058 465.371C290.058 461.983 291.523 459.066 294.453 456.62C295.472 455.83 296.759 455.168 298.313 454.633C298.313 454.607 298.224 454.416 298.046 454.06C297.867 453.703 297.676 453.295 297.472 452.837C297.269 452.378 297.065 451.869 296.861 451.308C296.657 450.748 296.492 450.174 296.364 449.588C296.237 449.002 296.16 448.455 296.135 447.945ZM292.963 466.25C292.963 467.448 293.269 468.403 293.88 469.116C294.491 469.83 295.358 470.186 296.479 470.186C297.218 470.186 297.88 469.881 298.466 469.269C299.052 468.658 299.498 467.893 299.804 466.976C300.109 466.059 300.339 465.206 300.492 464.416C300.644 463.626 300.734 462.938 300.759 462.352C300.759 461.461 300.67 460.62 300.492 459.83C300.313 459.04 300.135 458.454 299.957 458.072C299.778 457.69 299.447 456.977 298.963 455.932L298.581 456.085C297.46 456.467 296.492 457.155 295.676 458.149C294.861 459.142 294.275 460.238 293.918 461.435C293.562 462.632 293.319 463.613 293.192 464.378C293.065 465.142 292.988 465.766 292.963 466.25Z" fill="black"></path><path d="M306.764 460.244C306.79 460.092 306.828 459.888 306.879 459.633C306.93 459.378 307.083 458.894 307.338 458.181C307.592 457.467 307.847 456.869 308.102 456.385C308.357 455.901 308.764 455.429 309.325 454.971C309.885 454.512 310.446 454.296 311.006 454.321C311.567 454.347 312.115 454.436 312.65 454.589C313.185 454.741 313.567 454.971 313.796 455.276C314.026 455.582 314.229 455.862 314.408 456.117C314.586 456.372 314.688 456.614 314.713 456.843L314.79 457.111C314.79 457.162 314.803 457.187 314.828 457.187L315.249 456.767C316.777 455.136 318.573 454.321 320.637 454.321C321.07 454.321 321.465 454.347 321.822 454.398C322.178 454.449 322.51 454.538 322.816 454.665C323.121 454.792 323.363 454.92 323.542 455.047C323.72 455.175 323.911 455.327 324.115 455.506C324.319 455.684 324.446 455.85 324.497 456.003C324.548 456.155 324.65 456.321 324.803 456.499C324.956 456.678 325.007 456.831 324.956 456.958C324.905 457.085 324.943 457.2 325.07 457.302C325.198 457.404 325.223 457.493 325.147 457.569L325.452 457.187C327.058 455.276 328.956 454.321 331.147 454.321C332.523 454.321 333.631 454.665 334.472 455.353C335.312 456.041 335.746 457.047 335.771 458.372C335.771 459.671 335.287 461.684 334.319 464.41C333.351 467.136 332.867 468.766 332.867 469.301C332.892 469.658 332.956 469.9 333.058 470.027C333.16 470.155 333.351 470.219 333.631 470.219C334.344 470.219 335.007 469.836 335.618 469.072C336.23 468.308 336.726 467.263 337.109 465.938C337.185 465.658 337.261 465.493 337.338 465.442C337.414 465.391 337.618 465.365 337.949 465.365C338.459 465.365 338.714 465.467 338.714 465.671C338.714 465.696 338.663 465.888 338.561 466.244C338.357 466.983 338.077 467.709 337.72 468.422C337.363 469.136 336.777 469.849 335.962 470.562C335.147 471.276 334.268 471.62 333.325 471.594C332.128 471.594 331.261 471.25 330.726 470.562C330.191 469.875 329.924 469.161 329.924 468.422C329.924 467.938 330.382 466.41 331.3 463.837C332.217 461.264 332.688 459.327 332.714 458.028C332.714 456.525 332.153 455.773 331.032 455.773H330.841C328.65 455.773 326.803 457.06 325.3 459.633L325.032 460.092L323.771 465.212C322.93 468.55 322.446 470.346 322.319 470.601C321.987 471.289 321.44 471.632 320.675 471.632C320.344 471.632 320.077 471.543 319.873 471.365C319.669 471.187 319.529 471.034 319.452 470.906C319.376 470.779 319.338 470.652 319.338 470.524C319.338 470.244 319.771 468.422 320.637 465.06L322.013 459.48C322.089 459.098 322.128 458.614 322.128 458.028C322.128 456.525 321.567 455.773 320.446 455.773H320.255C318.064 455.773 316.217 457.06 314.713 459.633L314.446 460.092L313.185 465.212C312.344 468.55 311.86 470.346 311.733 470.601C311.401 471.289 310.854 471.632 310.089 471.632C309.758 471.632 309.49 471.556 309.287 471.403C309.083 471.25 308.943 471.097 308.866 470.945C308.79 470.792 308.764 470.664 308.79 470.562C308.79 470.231 309.274 468.142 310.242 464.295C311.236 460.372 311.733 458.321 311.733 458.143C311.809 457.761 311.847 457.417 311.847 457.111C311.847 456.194 311.529 455.735 310.892 455.735C310.331 455.735 309.86 456.092 309.478 456.805C309.096 457.518 308.803 458.296 308.599 459.136C308.395 459.977 308.242 460.436 308.14 460.512C308.089 460.563 307.885 460.588 307.529 460.588H306.994C306.841 460.436 306.764 460.321 306.764 460.244Z" fill="black"></path><path fill-rule="evenodd" clip-rule="evenodd" d="M212.027 455.318H203.813V463.531H212.027V461.067H285.951V457.782H212.027V455.318Z" fill="black"></path><path d="M108.119 207.913C108.119 207.627 107.013 207.485 104.799 207.485H103.906C103.763 207.366 103.692 207.27 103.692 207.199C103.692 207.128 103.715 206.901 103.763 206.521C103.858 206.211 103.977 205.985 104.12 205.842H104.727C105.703 205.89 107.441 205.914 109.941 205.914C110.964 205.914 111.797 205.914 112.44 205.914C113.083 205.914 113.523 205.902 113.761 205.878C113.999 205.854 114.166 205.854 114.261 205.878C114.594 205.878 114.761 205.997 114.761 206.235C114.761 206.283 114.725 206.449 114.654 206.735C114.559 207.116 114.475 207.33 114.404 207.378C114.333 207.425 114.106 207.461 113.726 207.485C112.488 207.485 111.785 207.651 111.619 207.984C111.524 208.294 110.786 211.234 109.405 216.804C107.905 222.707 107.143 225.671 107.12 225.695C106.596 227.194 105.572 228.456 104.049 229.479C102.525 230.503 100.883 231.015 99.1211 231.015C97.7404 231.015 96.574 230.658 95.6218 229.944C94.6695 229.23 94.1934 228.277 94.1934 227.087C94.1934 226.087 94.4672 225.326 95.0147 224.802C95.5622 224.278 96.1812 224.016 96.8715 224.016C97.9428 224.016 98.5379 224.54 98.6569 225.588C98.6569 226.349 98.4427 226.944 98.0142 227.373C97.5857 227.801 97.0977 228.087 96.5502 228.23C96.3597 228.277 96.2645 228.313 96.2645 228.337C96.2645 228.361 96.3478 228.468 96.5144 228.658C97.1334 229.349 98.0261 229.694 99.1925 229.694C100.097 229.694 100.978 229.313 101.835 228.551C102.692 227.789 103.323 226.802 103.727 225.588C103.823 225.302 104.572 222.326 105.977 216.661C107.381 210.996 108.096 208.08 108.119 207.913Z" fill="black"></path><path d="M122.805 217.84C122.805 217.531 122.971 217.293 123.305 217.126H146.051C146.408 217.316 146.586 217.554 146.586 217.84C146.586 218.102 146.419 218.328 146.086 218.518L134.731 218.554H123.376C122.995 218.435 122.805 218.197 122.805 217.84ZM122.805 224.767C122.805 224.41 122.995 224.172 123.376 224.053H146.086C146.419 224.291 146.586 224.529 146.586 224.767C146.586 225.076 146.408 225.314 146.051 225.481H123.305C122.971 225.314 122.805 225.076 122.805 224.767Z" fill="black"></path><path d="M155.446 219.984C155.446 219.793 155.553 219.424 155.768 218.877C155.982 218.329 156.279 217.711 156.66 217.02C157.041 216.33 157.565 215.735 158.231 215.235C158.898 214.735 159.6 214.473 160.338 214.449C161.433 214.449 162.255 214.747 162.802 215.342C163.35 215.937 163.623 216.639 163.623 217.449C163.623 217.877 163.219 219.21 162.409 221.448C161.6 223.685 161.195 225.363 161.195 226.482C161.195 227.506 161.362 228.22 161.695 228.625C162.028 229.029 162.528 229.244 163.195 229.267C163.861 229.291 164.492 229.089 165.087 228.66C165.683 228.232 166.123 227.827 166.409 227.446L166.801 226.839C166.849 226.744 167.301 224.935 168.158 221.412C168.872 218.556 169.301 216.889 169.444 216.413C169.587 215.937 169.753 215.592 169.944 215.378C170.348 215.021 170.777 214.842 171.229 214.842C171.634 214.842 171.931 214.961 172.122 215.199C172.312 215.437 172.408 215.663 172.408 215.878L169.694 227.232C169.67 227.351 169.658 227.542 169.658 227.803C169.658 228.398 169.741 228.791 169.908 228.982C170.075 229.172 170.324 229.279 170.658 229.303C171.182 229.232 171.598 228.863 171.908 228.196C172.217 227.53 172.574 226.482 172.979 225.054C173.026 224.864 173.264 224.768 173.693 224.768C174.145 224.768 174.371 224.876 174.371 225.09C174.348 225.209 174.324 225.375 174.3 225.59C174.276 225.804 174.169 226.185 173.979 226.732C173.788 227.28 173.586 227.791 173.372 228.268C173.157 228.744 172.86 229.196 172.479 229.624C172.098 230.053 171.669 230.35 171.193 230.517C171.003 230.565 170.717 230.588 170.336 230.588C168.765 230.588 167.682 229.922 167.087 228.589C167.039 228.613 166.908 228.732 166.694 228.946C166.48 229.16 166.266 229.339 166.051 229.482C165.837 229.624 165.575 229.803 165.266 230.017C164.956 230.231 164.611 230.374 164.23 230.446C163.85 230.517 163.445 230.577 163.016 230.624C161.969 230.624 161.04 230.41 160.231 229.981C158.993 229.244 158.374 227.982 158.374 226.197C158.374 224.84 158.791 223.066 159.624 220.876C160.457 218.687 160.874 217.294 160.874 216.699C160.874 216.675 160.874 216.651 160.874 216.627C160.874 216.413 160.874 216.27 160.874 216.199C160.874 216.128 160.826 216.044 160.731 215.949C160.636 215.854 160.505 215.806 160.338 215.806H160.195C159.648 215.806 159.148 216.032 158.696 216.485C158.243 216.937 157.886 217.425 157.624 217.949C157.363 218.472 157.16 218.972 157.017 219.448C156.875 219.924 156.779 220.186 156.732 220.234C156.684 220.281 156.494 220.305 156.16 220.305H155.661C155.518 220.162 155.446 220.055 155.446 219.984Z" fill="black"></path><path d="M180.674 221.307C180.674 220.735 180.876 220.235 181.281 219.807C181.686 219.378 182.197 219.164 182.816 219.164C183.388 219.164 183.888 219.355 184.316 219.735C184.745 220.116 184.971 220.628 184.994 221.271C184.994 221.866 184.792 222.378 184.387 222.806C183.983 223.235 183.471 223.449 182.852 223.449C182.233 223.449 181.721 223.247 181.317 222.842C180.912 222.437 180.698 221.925 180.674 221.307Z" fill="black"></path><path d="M197.704 208.487C197.704 207.368 198.085 206.452 198.847 205.738C199.608 205.024 200.501 204.655 201.525 204.631C201.929 204.655 202.513 204.75 203.274 204.916C204.036 205.083 204.703 205.226 205.274 205.345C205.845 205.464 206.155 205.547 206.202 205.595C206.631 205.785 206.845 206.119 206.845 206.595C206.845 207.023 206.69 207.428 206.381 207.809C206.071 208.19 205.655 208.38 205.131 208.38C204.631 208.38 203.977 208.035 203.167 207.344C202.358 206.654 201.644 206.297 201.025 206.273C200.406 206.249 199.942 206.416 199.632 206.773C199.323 207.13 199.156 207.475 199.132 207.809C199.132 208.856 200.311 210.82 202.667 213.7C204.262 215.7 205.06 217.735 205.06 219.806C205.06 222.734 204.334 225.257 202.882 227.375C201.429 229.494 199.823 230.565 198.061 230.589H197.811C196.121 230.589 194.752 230.042 193.705 228.947C192.657 227.852 192.098 226.459 192.026 224.769C192.026 221.603 193.395 218.877 196.133 216.592C197.085 215.854 198.287 215.235 199.739 214.736C199.739 214.712 199.656 214.533 199.489 214.2C199.323 213.867 199.144 213.486 198.954 213.057C198.763 212.629 198.573 212.153 198.382 211.629C198.192 211.106 198.037 210.57 197.918 210.022C197.799 209.475 197.728 208.963 197.704 208.487ZM194.74 225.59C194.74 226.709 195.026 227.602 195.597 228.268C196.168 228.935 196.978 229.268 198.025 229.268C198.716 229.268 199.335 228.982 199.882 228.411C200.43 227.84 200.846 227.126 201.132 226.269C201.418 225.412 201.632 224.614 201.775 223.876C201.917 223.138 202.001 222.496 202.025 221.948C202.025 221.115 201.941 220.33 201.775 219.592C201.608 218.854 201.441 218.306 201.275 217.949C201.108 217.592 200.799 216.926 200.346 215.95L199.989 216.092C198.942 216.449 198.037 217.092 197.275 218.02C196.514 218.949 195.966 219.972 195.633 221.091C195.3 222.21 195.073 223.126 194.954 223.841C194.835 224.555 194.764 225.138 194.74 225.59Z" fill="black"></path><path d="M207.534 219.979C207.558 219.836 207.593 219.646 207.641 219.408C207.688 219.17 207.831 218.717 208.069 218.051C208.307 217.384 208.545 216.825 208.783 216.373C209.022 215.92 209.402 215.48 209.926 215.051C210.45 214.623 210.974 214.421 211.497 214.445C212.021 214.468 212.533 214.552 213.033 214.694C213.533 214.837 213.89 215.051 214.104 215.337C214.318 215.623 214.509 215.885 214.675 216.123C214.842 216.361 214.937 216.587 214.961 216.801L215.032 217.051C215.032 217.099 215.044 217.122 215.068 217.122L215.461 216.73C216.889 215.206 218.567 214.445 220.496 214.445C220.9 214.445 221.269 214.468 221.603 214.516C221.936 214.564 222.245 214.647 222.531 214.766C222.817 214.885 223.043 215.004 223.209 215.123C223.376 215.242 223.555 215.385 223.745 215.551C223.935 215.718 224.054 215.873 224.102 216.016C224.15 216.158 224.245 216.313 224.388 216.48C224.531 216.646 224.578 216.789 224.531 216.908C224.483 217.027 224.519 217.134 224.638 217.23C224.757 217.325 224.781 217.408 224.709 217.48L224.995 217.122C226.495 215.337 228.268 214.445 230.315 214.445C231.601 214.445 232.636 214.766 233.422 215.409C234.207 216.051 234.612 216.992 234.636 218.229C234.636 219.443 234.184 221.324 233.279 223.871C232.374 226.418 231.922 227.941 231.922 228.441C231.946 228.774 232.005 229.001 232.101 229.12C232.196 229.239 232.374 229.298 232.636 229.298C233.303 229.298 233.922 228.941 234.493 228.227C235.064 227.513 235.529 226.537 235.886 225.299C235.957 225.037 236.029 224.883 236.1 224.835C236.171 224.787 236.362 224.764 236.671 224.764C237.147 224.764 237.385 224.859 237.385 225.049C237.385 225.073 237.338 225.251 237.243 225.585C237.052 226.275 236.79 226.953 236.457 227.62C236.124 228.286 235.576 228.953 234.814 229.62C234.053 230.286 233.231 230.607 232.351 230.584C231.232 230.584 230.422 230.262 229.922 229.62C229.423 228.977 229.173 228.31 229.173 227.62C229.173 227.168 229.601 225.739 230.458 223.335C231.315 220.931 231.756 219.122 231.779 217.908C231.779 216.504 231.256 215.801 230.208 215.801H230.03C227.982 215.801 226.257 217.003 224.852 219.408L224.602 219.836L223.424 224.621C222.638 227.739 222.186 229.417 222.067 229.655C221.757 230.298 221.245 230.619 220.531 230.619C220.222 230.619 219.972 230.536 219.781 230.369C219.591 230.203 219.46 230.06 219.389 229.941C219.317 229.822 219.282 229.703 219.282 229.584C219.282 229.322 219.686 227.62 220.496 224.478L221.781 219.265C221.853 218.908 221.888 218.456 221.888 217.908C221.888 216.504 221.365 215.801 220.317 215.801H220.139C218.091 215.801 216.365 217.003 214.961 219.408L214.711 219.836L213.533 224.621C212.747 227.739 212.295 229.417 212.176 229.655C211.866 230.298 211.354 230.619 210.64 230.619C210.331 230.619 210.081 230.548 209.89 230.405C209.7 230.262 209.569 230.119 209.498 229.977C209.426 229.834 209.402 229.715 209.426 229.62C209.426 229.31 209.879 227.358 210.783 223.764C211.712 220.098 212.176 218.182 212.176 218.015C212.247 217.658 212.283 217.337 212.283 217.051C212.283 216.194 211.985 215.766 211.39 215.766C210.866 215.766 210.426 216.099 210.069 216.765C209.712 217.432 209.438 218.158 209.248 218.943C209.057 219.729 208.914 220.157 208.819 220.229C208.772 220.276 208.581 220.3 208.248 220.3H207.748C207.605 220.157 207.534 220.05 207.534 219.979Z" fill="black"></path><path d="M151.239 520.905C155.099 518.1 160.327 518.1 164.188 520.905C168.048 523.71 169.664 528.681 168.189 533.22C166.714 537.758 162.485 540.83 157.713 540.83C152.942 540.83 148.712 537.758 147.238 533.22C145.763 528.681 147.378 523.71 151.239 520.905Z" fill="#FF8D23"></path><path d="M16.7665 438.475C21.2477 435.888 26.7691 435.888 31.2505 438.475C35.7319 441.062 38.4929 445.844 38.4929 451.019C38.4929 456.193 35.7322 460.975 31.251 463.562C26.7694 466.15 21.2475 466.15 16.7659 463.562C12.2848 460.975 9.52441 456.193 9.52441 451.019C9.52441 445.844 12.2851 441.062 16.7665 438.475Z" fill="#FF8D23"></path><path d="M60.3215 557.525C65.8236 554.348 72.6025 554.348 78.1046 557.525C83.6068 560.702 86.9964 566.573 86.9964 572.926C86.9964 579.28 83.6068 585.151 78.1046 588.327C72.6025 591.504 65.8236 591.504 60.3215 588.327C54.8193 585.151 51.4297 579.28 51.4297 572.926C51.4297 566.573 54.8192 560.702 60.3215 557.525Z" fill="#FF8D23"></path><path d="M153.19 383.069C155.519 381.376 158.673 381.376 161.002 383.069C163.331 384.761 164.306 387.76 163.416 390.498C162.526 393.236 159.975 395.089 157.096 395.089C154.217 395.089 151.666 393.236 150.776 390.497C149.887 387.76 150.862 384.761 153.19 383.069Z" fill="#FF8D23"></path><path d="M288.428 258.484L324.474 294.53L319.668 318.236C318.923 321.909 317.286 325.343 314.901 328.235L263.633 390.409L192.549 319.325L254.723 268.057C257.615 265.672 261.049 264.036 264.723 263.291L288.428 258.484Z" fill="#999999"></path><path d="M276.95 281.917L301.384 306.27L245.737 373.735L209.668 337.785L276.95 281.917Z" fill="#E5E5E5"></path><path d="M301.329 271.423L311.801 281.86L301.386 306.27L276.952 281.917L301.329 271.423Z" fill="#E5E5E5"></path><path d="M248.646 375.473L207.923 334.884L185.889 356.99L226.611 397.58L248.646 375.473Z" fill="#4C4C4C"></path><path d="M237.626 386.525L196.903 345.936L185.886 356.989L226.609 397.578L237.626 386.525Z" fill="#FF8D23"></path><path d="M192.797 319.808L207.923 334.884L191.687 351.173L176.561 336.097L192.797 319.808Z" fill="#4C4C4C"></path><path d="M185.838 326.789L200.964 341.865L191.686 351.173L176.561 336.097L185.838 326.789Z" fill="#FF8D23"></path><path d="M248.647 375.473L263.772 390.549L247.537 406.838L232.411 391.762L248.647 375.473Z" fill="#4C4C4C"></path><path d="M467.406 109.918L493.468 85.7669C494.403 84.9006 495.855 84.927 496.757 85.8267C497.66 86.7264 497.691 88.1785 496.828 89.1162L472.763 115.256L473.69 116.181C475.479 117.964 476.486 120.385 476.49 122.911L476.511 135.886C476.518 139.927 474.919 143.806 472.066 146.668L324.601 294.618L288.533 258.667L435.997 110.718C438.85 107.855 442.724 106.243 446.765 106.237L459.74 106.216C462.266 106.211 464.69 107.211 466.479 108.994L467.406 109.918Z" fill="#CCCCCC"></path><path d="M456.74 122.482L446.269 112.045L294.348 264.464L304.82 274.902L456.74 122.482Z" fill="#E5E5E5"></path><path d="M439.095 124.925C443.944 124.906 448.601 126.813 452.044 130.228C455.486 133.643 457.431 138.286 457.45 143.134C457.469 147.983 455.562 152.641 452.147 156.083C448.732 159.525 444.09 161.47 439.241 161.489C434.392 161.51 429.735 159.601 426.292 156.186C422.85 152.772 420.905 148.129 420.886 143.28C420.866 138.431 422.774 133.774 426.189 130.331C429.604 126.889 434.246 124.944 439.095 124.925Z" fill="black"></path><path d="M261.826 266.261L277.533 281.917M277.533 281.917L208.218 336.916L187.053 358.151M277.533 281.917L301.386 305.69M317.384 321.637L301.386 305.69M301.386 305.69L246.614 375.186L225.449 396.421" stroke="black" stroke-width="3.28552"></path><path d="M312.964 283.021L404 191.686" stroke="#808080" stroke-width="3.28552"></path><path d="M397.54 149.295L433.609 185.246" stroke="#808080" stroke-width="3.28552"></path><path d="M241.689 382.454L256.815 397.531L247.537 406.839L232.411 391.763L241.689 382.454Z" fill="#FF8D23"></path><path d="M384.904 234.115L348.835 198.164L334.339 212.708L370.408 248.659L384.904 234.115Z" fill="#FF8D23"></path><path d="M424.333 194.553L388.265 158.603L365.651 181.291L401.719 217.242L424.333 194.553Z" fill="#4C4C4C"></path><path d="M370.404 248.658L334.335 212.707L327.377 219.688L363.446 255.639L370.404 248.658Z" fill="#4C4C4C"></path><path d="M365.123 214.4L354.651 203.963L340.155 218.507L350.627 228.944L365.123 214.4Z" fill="#FF8D23"></path><path d="M404.553 174.842L394.081 164.404L371.467 187.093L381.939 197.53L404.553 174.842Z" fill="#666666"></path><path d="M350.627 228.944L340.155 218.507L333.197 225.488L343.669 235.925L350.627 228.944Z" fill="#666666"></path><path d="M318.682 228.415L334.971 244.65L313.517 266.176L297.228 249.94" stroke="#808080" stroke-width="3.28552"></path><mask id=":R4qplt6H2:" style="mask-type:alpha" maskUnits="userSpaceOnUse" x="420" y="124" width="38" height="38"><path d="M439.059 124.695C443.977 124.676 448.701 126.61 452.193 130.074C455.684 133.538 457.657 138.247 457.676 143.165C457.696 148.083 455.761 152.807 452.297 156.299C448.833 159.79 444.125 161.763 439.207 161.782C434.289 161.803 429.565 159.867 426.073 156.403C422.581 152.94 420.609 148.231 420.589 143.313C420.57 138.395 422.504 133.67 425.968 130.178C429.432 126.687 434.141 124.715 439.059 124.695Z" fill="black"></path></mask><g mask="url(#:R4qplt6H2:)"><g clip-path="url(#:R4qplt6H1:)"><path d="M443.896 131.741C447.866 131.039 451.325 134.497 450.623 138.467L450.429 139.559C449.974 142.132 449.974 144.765 450.429 147.337L450.623 148.43C451.325 152.399 447.866 155.858 443.896 155.156L442.804 154.963C440.231 154.507 437.599 154.507 435.026 154.963L433.934 155.156C429.964 155.858 426.505 152.399 427.208 148.43L427.401 147.337C427.856 144.765 427.856 142.132 427.401 139.559L427.208 138.467C426.505 134.497 429.964 131.039 433.934 131.741L435.026 131.934C437.599 132.389 440.231 132.389 442.804 131.934L443.896 131.741Z" fill="#29CC57"></path></g><path d="M438.474 137.447C439.5 136.421 441.164 136.421 442.19 137.447L446.603 141.86C447.629 142.886 447.629 144.549 446.603 145.575L442.654 149.524L434.526 141.395L438.474 137.447Z" fill="white"></path><path d="M446.138 141.394L442.654 137.91L439.17 141.394L442.654 144.877L446.138 141.394Z" fill="black"></path></g><path d="M453.299 128.959C449.512 125.202 444.388 123.103 439.053 123.125C433.718 123.146 428.61 125.286 424.853 129.072C421.096 132.86 418.997 137.985 419.019 143.319C419.04 148.654 421.18 153.761 424.966 157.519C428.754 161.276 433.879 163.375 439.213 163.354C444.548 163.332 449.655 161.193 453.413 157.405C457.17 153.618 459.269 148.493 459.248 143.159C459.226 137.823 457.087 132.716 453.299 128.959Z" stroke="#999999" stroke-width="4.06155"></path></g><defs><radialGradient id="paint0_radial_3014_221572" cx="0" cy="0" r="1" gradientUnits="userSpaceOnUse" gradientTransform="translate(255.243 308.577) rotate(129.806) scale(342.171 180.337)"><stop offset="0.172224" stop-color="#F7C325"></stop><stop offset="1" stop-color="#F7C325" stop-opacity="0"></stop></radialGradient><clipPath id=":R4qplt6:"><rect width="510" height="600" fill="white"></rect></clipPath><clipPath id=":R4qplt6H1:"><rect width="28.572" height="28.572" fill="white" transform="translate(438.915 123.245) rotate(45)"></rect></clipPath></defs></svg>