<svg viewBox="0 0 24 24" focusable="false" xmlns="http://www.w3.org/2000/svg"><path d="m24.5 12.252-3.402 1.257-4.651 1.715-3.509 1.298-4.87-1.797-6.692-2.473 4.422-1.635 3.036-1.12 3.779-1.394.247-.092h.156l4.026 1.486 4.138 1.527 3.32 1.228Z" fill="#9C62FF"></path><path d="M13.016 8.012h-.156l.078-.03.078.03Z" fill="#9C62FF"></path><path d="M18.61.75H6.6a3.61 3.61 0 0 0-2.558 1.06 3.617 3.617 0 0 0 2.555 6.175h12.01a3.603 3.603 0 0 0 2.559-1.061A3.618 3.618 0 0 0 18.606.75h.003Z" fill="#C3A0FF"></path><path d="M17.708 23.177H.5l6.03-6.648h17.21l-6.03 6.648Z" fill="#5A2E9F"></path></svg>