<svg 
  viewBox="0 0 22 22" 
  focusable="false" 
  aria-hidden="true"
  xmlns="http://www.w3.org/2000/svg"
  role="img"
>
  <path 
    d="M0 11.0662C0.00127985 16.5108 3.9361 21.1467 9.28038 22V14.2648H6.48977V11.0662H9.28368V8.6313C9.15878 7.47753 9.55044 6.32766 10.3524 5.49353C11.1544 4.6594 12.2837 4.22747 13.4338 4.31489C14.2594 4.32831 15.0829 4.40229 15.8977 4.53625V7.2578H14.5074C14.0287 7.19472 13.5475 7.35378 13.1993 7.69018C12.8511 8.02657 12.6735 8.5039 12.7167 8.98768V11.0662H15.7647L15.2774 14.2659H12.7167V22C18.4964 21.0809 22.5493 15.7697 21.9393 9.91413C21.3293 4.05853 16.2698 -0.291573 10.4263 0.0152787C4.58284 0.322131 0.000928892 5.17851 0 11.0662Z"
    fill="#0866FF"
  />
</svg>