<svg viewBox="0 0 24 24" focusable="false" xmlns="http://www.w3.org/2000/svg"><path d="M23.51 24H.286V10.956c4.99 0 6.173-2.22 13.703-8.571C16.173.542 18.262 0 19.936 0c2.141 0 3.574.819 3.574.819v23.18Z" fill="#673404"></path><path d="M.25 6.464s1.8-1.844 4.068-1.686c2.267.158 3.866 1.532 6.034 3.787 1.274 1.345 2.291 1.73 3.273 1.8 2.07.147 3.72-1.416 6.05-1.25 1.504.107 2.833.898 3.795 1.793v13.094H.29L.25 6.463Z" fill="#CD6809"></path><path d="M23.509 14.088v9.909H.289v-4.46l.143-.119A8.851 8.851 0 0 1 2.327 18.2a6.17 6.17 0 0 1 2.002-.55c1.152-.12 2.228.09 3.356.23 1.804.225 3.735.284 6.303-1.402a27.39 27.39 0 0 1 2.24-1.33 17.624 17.624 0 0 1 2.137-.965c.961-.352 1.769-.534 2.437-.601 1.931-.198 2.703.506 2.703.506h.004Z" fill="#FF8D22"></path></svg>