<svg viewBox="0 0 24 24" focusable="false" xmlns="http://www.w3.org/2000/svg"><g clip-path="url(#a)"><path fill-rule="evenodd" clip-rule="evenodd" d="M13.714 12.32V0h-3.428v12.32h3.428Z" fill="#5A2EA3"></path><circle cx="12" cy="10.588" r="4.114" transform="rotate(-180 12 10.588)" fill="#5A2EA3"></circle><path fill-rule="evenodd" clip-rule="evenodd" d="M10.629 24v-7.51l-4.8-4.513V5.143h-3.43v8.316l4.8 4.513V24h3.43Z" fill="#9D62FF"></path><path fill-rule="evenodd" clip-rule="evenodd" d="M13.371 24v-7.51l4.8-4.513V5.143h3.43v8.316l-4.8 4.513V24h-3.43Z" fill="#C3A0FF"></path><circle cx="4.114" cy="4.114" r="4.114" transform="matrix(1 0 0 -1 15.771 8.229)" fill="#C3A0FF"></circle><circle cx="4.114" cy="4.114" r="4.114" transform="matrix(1 0 0 -1 .013 8.229)" fill="#9D62FF"></circle></g><defs><clipPath id=":r6:"><path fill="#fff" transform="matrix(1 0 0 -1 0 24)" d="M0 0h24v24H0z"></path></clipPath></defs></svg>