<svg viewBox="0 0 24 24" focusable="false" xmlns="http://www.w3.org/2000/svg"><g clip-path="url(#a)"><path d="M10.507 20.905c.229.32.48.628.766.914a7.456 7.456 0 0 0 10.541 0 7.456 7.456 0 0 0 0-10.542 7.213 7.213 0 0 0-.914-.765l-8.2 2.197-2.197 8.2.004-.004Z" fill="#926D00"></path><path d="M20.904 10.507a7.7 7.7 0 0 0 .407-1.124 7.452 7.452 0 0 0-5.27-9.128 7.452 7.452 0 0 0-9.129 5.27 7.483 7.483 0 0 0-.21 1.177l6.002 6.002 8.2-2.197Z" fill="#D6A513"></path><path d="M9.387 21.31a7.869 7.869 0 0 0 1.124-.407l2.197-8.2-6.002-6.001a7.483 7.483 0 0 0-1.176.21 7.454 7.454 0 1 0 3.854 14.4h.003Z" fill="#F5CE5C"></path></g><defs><clipPath id=":r7:"><path fill="#fff" d="M0 0h24v24H0z"></path></clipPath></defs></svg>